<?xml version="1.0" encoding="utf-8"?>
<!-- Generator: Adobe Illustrator 27.2.0, SVG Export Plug-In . SVG Version: 6.00 Build 0)  -->
<svg version="1.1" id="Capa_2_00000075853126372095070480000008215778747966662547_"
	 xmlns="http://www.w3.org/2000/svg" xmlns:xlink="http://www.w3.org/1999/xlink" x="0px" y="0px" viewBox="0 0 1109.7 267.5"
	 style="enable-background:new 0 0 1109.7 267.5;" xml:space="preserve">
<style type="text/css">
	.st0{fill:#009EFF;}
	.st1{enable-background:new    ;}
</style>
<g id="Capa_1-2">
	<g>
		<g>
			<g>
				<path class="st0" d="M70.2,153.2l-2.1,1.1L70.2,153.2C70.3,153.2,70.2,153.2,70.2,153.2z M70.2,153.2l-2.1,1.1L70.2,153.2
					C70.3,153.2,70.2,153.2,70.2,153.2z M224.2,18.1l-40.3,20.3l0,0L224.2,18.1C224.3,18.1,224.3,18.1,224.2,18.1z M70.2,153.2
					l-2.1,1.1L70.2,153.2C70.3,153.2,70.2,153.2,70.2,153.2z M56.4,160.2l-29.1,14.7v0L56.4,160.2L56.4,160.2z M70.2,153.2l-2.1,1.1
					L70.2,153.2C70.3,153.2,70.2,153.2,70.2,153.2z M70.2,153.2l-2.1,1.1L70.2,153.2C70.3,153.2,70.2,153.2,70.2,153.2z"/>
				<path class="st0" d="M253.4,93.2c-2.4,19.4-9,36-19.6,49.9c-10.7,13.9-24.7,24.6-42.2,32.1s-37.9,11.3-61.4,11.3H64.1l-10.1,81
					H15.8l10.8-86.3l33.2-16.7l7.6-3.8l14.6-7.3h51.3c24.5,0,43.6-5.2,57.6-15.7c13.9-10.5,22.1-25.2,24.5-44.4
					c0.6-4.7,0.8-9.2,0.5-13.4l-58.2,29.4l-87.3,44l-2.1,1.1l0,0l-11.7,5.9l-29.1,14.7l-6.4,3.2l0,0l1,2.1c0.6,1.3-0.6,2.8-2,2.3
					l-4.6-1.6l-14.2-4.9c-0.4-0.2-0.7-0.5-0.9-0.9c-0.2-0.4-0.3-0.8-0.1-1.3l6.5-18.8c0.5-1.4,2.4-1.5,3.1-0.2l1.2,2.4l19.9-10
					l40.8-20.6l137.4-69.3l35.4-17.8c0.7,1.2,1.4,2.3,2,3.5c1.1,2.1,2.1,4.2,2.9,6.5c1.4,3.7,2.6,7.6,3.4,11.7
					C254.6,71,254.9,81.6,253.4,93.2z"/>
			</g>
			<path class="st0" d="M258.3,15.5l-6.5,18.8c-0.5,1.4-2.4,1.5-3,0.2l-1.1-2.3l-4.1,2.1l-2,1l-35.6,17.9L72.3,120.6l-40.8,20.6
				l0.6-4.6l2.9-23L49.1,0h104.3c23.4,0,42.9,3.7,58.6,11.1c2.5,1.2,4.8,2.4,7.1,3.8l-42.5,21.4c-8.2-2-17.7-3.1-28.5-3.1h-65
				l-7.5,59.9L184,38.5l40.3-20.3l13.2-6.7v0l-1.1-2.2c-0.6-1.3,0.6-2.8,2-2.3l4.7,1.6l14.1,4.9C258.2,13.8,258.6,14.7,258.3,15.5
				L258.3,15.5z"/>
		</g>
		<g class="st1">
			<path class="st0" d="M434.4,88.8c8,3.8,13.9,9.2,17.5,16.3c3.7,7.1,4.9,15.5,3.6,25.2c-1.2,9.6-4.5,18-10,25.1
				c-5.5,7.1-12.7,12.6-21.7,16.4s-19.3,5.7-30.7,5.7h-29.9l-4.8,38.3h-24.6l16.8-132.6h54.6C416.6,83.2,426.3,85.1,434.4,88.8z
				 M419.9,149.9c6.1-4.5,9.7-11.1,10.8-19.5c1.1-8.5-0.9-15-5.9-19.5c-5-4.5-12.8-6.8-23.6-6.8h-28.8l-6.7,52.7h28.8
				C405.4,156.7,413.8,154.4,419.9,149.9z"/>
		</g>
		<g class="st1">
			<path class="st0" d="M550.6,124.2c7,7.1,9.6,17.9,7.7,32.3l-7.5,59.3h-22.4l1.6-12.3c-3.5,4.4-8,7.8-13.7,10.1
				c-5.7,2.3-12.3,3.5-19.9,3.5c-7.6,0-14-1.3-19.4-3.9c-5.4-2.6-9.3-6.2-11.8-10.8c-2.5-4.6-3.4-9.8-2.7-15.6
				c1.2-9.1,5.5-16.4,12.9-21.9c7.5-5.5,18.4-8.2,33-8.2h26.1l0.2-1.5c0.9-7.1-0.5-12.5-4.3-16.3c-3.8-3.8-9.8-5.7-18.1-5.7
				c-5.7,0-11.4,0.9-17.1,2.7c-5.7,1.8-10.7,4.2-14.9,7.4l-7.1-17.2c5.8-4,12.6-7.1,20.3-9.3c7.7-2.1,15.8-3.2,24.1-3.2
				C532.7,113.5,543.6,117,550.6,124.2z M519.9,195.8c5-2.7,8.7-6.6,11.2-11.7l1.5-11.7h-24.4c-13.6,0-21,4.5-22.2,13.5
				c-0.5,4.3,0.7,7.7,3.8,10.2c3.1,2.5,7.7,3.8,13.7,3.8C509.5,199.9,515,198.5,519.9,195.8z"/>
		</g>
		<g class="st1">
			<path class="st0" d="M686.8,114.6l-61.2,109.3c-5.8,11-12.2,18.7-19,23.2c-6.9,4.5-14.8,6.7-23.8,6.7c-5.1,0-9.9-0.8-14.7-2.5
				c-4.7-1.6-8.5-3.9-11.3-6.8l11.7-17.4c2,2.1,4.5,3.9,7.4,5.1c2.9,1.3,6,1.9,9.1,1.9c4.2,0,7.7-1.1,10.7-3.2
				c3-2.1,5.9-5.7,8.9-10.8l2.2-4l-31.3-101.5h24.6l22.3,74.8l41.5-74.8H686.8z"/>
		</g>
		<g class="st1">
			<path class="st0" d="M701.8,213.3c-9.2-2.9-16.2-6.8-21.2-11.6l11-19.1c4.9,4.3,11.1,7.8,18.7,10.5c7.5,2.7,15.3,4.1,23.3,4.1
				c9.9,0,17.4-1.6,22.7-4.7c5.3-3.2,8.2-7.3,8.9-12.5c0.5-3.8-0.5-6.9-2.9-9.4c-2.4-2.5-5.6-4.4-9.6-5.8c-4-1.4-9.5-3-16.5-4.7
				c-9.8-2.4-17.7-4.8-23.6-7.2c-5.9-2.4-10.8-6.2-14.7-11.3c-3.8-5.1-5.2-12-4.1-20.7c0.9-7.3,3.8-14,8.5-20
				c4.7-6,11.3-10.8,19.8-14.3c8.5-3.5,18.5-5.3,30.1-5.3c8.1,0,15.9,1,23.5,3c7.6,2,14,4.9,19.2,8.7l-10.2,19.1
				c-5.4-3.4-11.1-6-17.2-7.8c-6.1-1.8-12.1-2.7-18-2.7c-9.7,0-17.2,1.6-22.3,4.9c-5.2,3.3-8.1,7.6-8.8,13.1
				c-0.5,3.8,0.5,6.9,2.9,9.3c2.4,2.4,5.6,4.3,9.6,5.7c4,1.4,9.5,3,16.5,4.7c9.6,2.3,17.3,4.6,23.3,7.1c6,2.5,10.9,6.2,14.8,11.3
				c3.8,5.1,5.2,11.9,4.1,20.5c-0.9,7.3-3.8,14-8.5,19.9c-4.7,5.9-11.4,10.7-19.9,14.2c-8.5,3.5-18.6,5.3-30.2,5.3
				C720.7,217.7,711,216.2,701.8,213.3z"/>
		</g>
		<g class="st1">
			<path class="st0" d="M868.5,210.3c-3.1,2.3-6.7,4-10.8,5.1c-4.1,1.1-8.4,1.7-12.8,1.7c-11.1,0-19.3-2.9-24.7-8.7
				c-5.3-5.8-7.3-14.3-5.9-25.4l6.2-48.7h-16.7l2.4-18.9h16.7l2.9-23.1h23.7l-2.9,23.1h27.1l-2.4,18.9h-27.1l-6.1,48.1
				c-0.6,4.9,0.1,8.7,2.2,11.3c2.1,2.6,5.4,3.9,9.9,3.9c5.3,0,9.9-1.4,13.8-4.2L868.5,210.3z"/>
		</g>
		<g class="st1">
			<path class="st0" d="M984,172.8h-79.4c0.4,7.5,3.3,13.4,8.7,17.7c5.3,4.4,12.3,6.5,21.1,6.5c11.1,0,20.7-3.7,28.9-11l10.8,14.6
				c-5.2,5.4-11.5,9.5-18.8,12.3c-7.3,2.8-15.3,4.2-24,4.2c-11.1,0-20.6-2.2-28.5-6.6c-7.9-4.4-13.7-10.6-17.3-18.5
				c-3.6-7.9-4.8-16.8-3.5-26.8c1.2-9.9,4.6-18.7,10.1-26.6c5.5-7.9,12.5-14,21-18.5c8.5-4.4,17.8-6.6,27.7-6.6
				c9.9,0,18.4,2.2,25.6,6.5c7.2,4.4,12.5,10.5,15.9,18.4c3.4,7.9,4.4,17,3.1,27.4C985.1,167.4,984.7,169.7,984,172.8z M918.3,139.1
				c-5.8,4.5-9.8,10.5-11.8,17.9h57.4c-0.1-7.3-2.4-13.3-7-17.8c-4.6-4.5-10.8-6.8-18.5-6.8C930.8,132.4,924.1,134.7,918.3,139.1z"
				/>
			<path class="st0" d="M1019.5,75.2h23.7l-17.8,140.6h-23.7L1019.5,75.2z"/>
			<path class="st0" d="M1074.3,75.2h23.7l-17.8,140.6h-23.7L1074.3,75.2z"/>
		</g>
	</g>
</g>
</svg>
