<svg width="19" height="19" viewBox="0 0 19 19" fill="none" xmlns="http://www.w3.org/2000/svg">
<path d="M12.0425 4.40746L13.1 6.52246C13.2425 6.81496 13.625 7.09246 13.9475 7.15246L15.86 7.46746C17.0825 7.66996 17.3675 8.55496 16.49 9.43996L14.9975 10.9325C14.75 11.18 14.6075 11.6675 14.69 12.02L15.1175 13.865C15.455 15.32 14.675 15.89 13.3925 15.125L11.6 14.06C11.2775 13.865 10.7375 13.865 10.415 14.06L8.6225 15.125C7.34 15.8825 6.56 15.32 6.8975 13.865L7.325 12.02C7.3925 11.66 7.25 11.1725 7.0025 10.925L5.51 9.43246C4.6325 8.55496 4.9175 7.66996 6.14 7.45996L8.0525 7.14496C8.375 7.09246 8.7575 6.80746 8.9 6.51496L9.9575 4.39996C10.535 3.25996 11.465 3.25996 12.0425 4.40746Z" fill="#009EFF"/>
<path d="M6.5 4.8125H2C1.6925 4.8125 1.4375 4.5575 1.4375 4.25C1.4375 3.9425 1.6925 3.6875 2 3.6875H6.5C6.8075 3.6875 7.0625 3.9425 7.0625 4.25C7.0625 4.5575 6.8075 4.8125 6.5 4.8125Z" fill="#009EFF"/>
<path d="M4.25 15.3125H2C1.6925 15.3125 1.4375 15.0575 1.4375 14.75C1.4375 14.4425 1.6925 14.1875 2 14.1875H4.25C4.5575 14.1875 4.8125 14.4425 4.8125 14.75C4.8125 15.0575 4.5575 15.3125 4.25 15.3125Z" fill="#009EFF"/>
<path d="M2.75 10.0625H2C1.6925 10.0625 1.4375 9.8075 1.4375 9.5C1.4375 9.1925 1.6925 8.9375 2 8.9375H2.75C3.0575 8.9375 3.3125 9.1925 3.3125 9.5C3.3125 9.8075 3.0575 10.0625 2.75 10.0625Z" fill="#009EFF"/>
</svg>
