<svg width="24" height="25" viewBox="0 0 24 25" fill="none" xmlns="http://www.w3.org/2000/svg">
<path d="M12 23.25C6.07 23.25 1.25 18.43 1.25 12.5C1.25 6.57 6.07 1.75 12 1.75C17.93 1.75 22.75 6.57 22.75 12.5C22.75 18.43 17.93 23.25 12 23.25ZM12 3.25C6.9 3.25 2.75 7.4 2.75 12.5C2.75 17.6 6.9 21.75 12 21.75C17.1 21.75 21.25 17.6 21.25 12.5C21.25 7.4 17.1 3.25 12 3.25Z" fill="#009EFF"/>
<path d="M10.58 16.0801C10.38 16.0801 10.19 16.0001 10.05 15.8601L7.22 13.0301C6.93 12.7401 6.93 12.2601 7.22 11.9701C7.51 11.6801 7.99 11.6801 8.28 11.9701L10.58 14.2701L15.72 9.1301C16.01 8.8401 16.49 8.8401 16.78 9.1301C17.07 9.4201 17.07 9.9001 16.78 10.1901L11.11 15.8601C10.97 16.0001 10.78 16.0801 10.58 16.0801Z" fill="#009EFF"/>
</svg>
